<?xml version="1.0" encoding="iso-8859-1"?>
<!-- Generator: Adobe Illustrator 17.1.0, SVG Export Plug-In . SVG Version: 6.00 Build 0)  -->
<!DOCTYPE svg PUBLIC "-//W3C//DTD SVG 1.1//EN" "http://www.w3.org/Graphics/SVG/1.1/DTD/svg11.dtd">
<svg version="1.1" xmlns="http://www.w3.org/2000/svg" xmlns:xlink="http://www.w3.org/1999/xlink" x="0px" y="0px"
	 viewBox="0 0 130 34" style="enable-background:new 0 0 130 34;" xml:space="preserve">
<g id="Layer_1">
	<path style="fill:#333333;" d="M0,0.469h17.461v4.172H4.688v9.141h12.773v4.172H4.688v15.258H0V0.469z"/>
	<path style="fill:#333333;" d="M38.543,0c5.059,0,9.271,1.602,12.637,4.805c3.364,3.203,5.047,7.219,5.047,12.047
		s-1.698,8.824-5.094,11.988c-3.396,3.164-7.679,4.746-12.847,4.746c-4.935,0-9.046-1.582-12.332-4.746
		c-3.287-3.164-4.931-7.129-4.931-11.895c0-4.891,1.655-8.938,4.966-12.141C29.299,1.602,33.484,0,38.543,0z M38.73,4.453
		c-3.746,0-6.825,1.172-9.237,3.516s-3.618,5.336-3.618,8.977c0,3.531,1.21,6.469,3.63,8.812c2.419,2.344,5.448,3.516,9.085,3.516
		c3.652,0,6.701-1.195,9.145-3.586c2.442-2.391,3.664-5.367,3.664-8.93c0-3.469-1.222-6.387-3.664-8.754
		C45.291,5.637,42.289,4.453,38.73,4.453z"/>
	<path style="fill:#333333;" d="M78.059,0c5.059,0,9.271,1.602,12.637,4.805c3.364,3.203,5.047,7.219,5.047,12.047
		s-1.698,8.824-5.094,11.988c-3.396,3.164-7.679,4.746-12.847,4.746c-4.935,0-9.046-1.582-12.332-4.746
		c-3.287-3.164-4.931-7.129-4.931-11.895c0-4.891,1.655-8.938,4.966-12.141C68.814,1.602,73,0,78.059,0z M78.246,4.453
		c-3.746,0-6.825,1.172-9.237,3.516s-3.618,5.336-3.618,8.977c0,3.531,1.21,6.469,3.63,8.812c2.419,2.344,5.448,3.516,9.085,3.516
		c3.652,0,6.701-1.195,9.145-3.586c2.442-2.391,3.664-5.367,3.664-8.93c0-3.469-1.222-6.387-3.664-8.754
		C84.807,5.637,81.805,4.453,78.246,4.453z"/>
	<path style="fill:#333333;" d="M99.35,33.164V0.469h11.039c4.453,0,7.977,0.668,10.57,2.004s4.656,3.301,6.188,5.895
		s2.297,5.422,2.297,8.484c0,2.188-0.422,4.281-1.266,6.281s-2.047,3.758-3.609,5.273c-1.594,1.562-3.445,2.742-5.555,3.539
		c-1.234,0.484-2.367,0.809-3.398,0.973s-3,0.246-5.906,0.246H99.35z M109.897,4.641h-5.859v24.352h6c2.344,0,4.164-0.16,5.461-0.48
		s2.379-0.727,3.246-1.219s1.66-1.098,2.379-1.816c2.312-2.344,3.469-5.305,3.469-8.883c0-3.516-1.188-6.383-3.562-8.602
		c-0.875-0.828-1.879-1.508-3.012-2.039s-2.207-0.883-3.223-1.055S112.147,4.641,109.897,4.641z"/>
</g>
<g id="Layer_2">
</g>
</svg>
