<?xml version="1.0" encoding="utf-8"?><!DOCTYPE svg PUBLIC "-//W3C//DTD SVG 1.1//EN" "http://www.w3.org/Graphics/SVG/1.1/DTD/svg11.dtd"><svg width="188" height="122" viewBox="0 0 188 122" xmlns="http://www.w3.org/2000/svg" xmlns:xlink="http://www.w3.org/1999/xlink"><svg viewBox="0 0 16 16" width="16" height="16" id="add-favourites-icon" x="146" y="24"><path fill="#525252" d="M16 5h-6V0H6v5H0v5h6v6h4v-6h6z"/></svg><svg viewBox="0 0 16 16" width="16" height="16" id="added-favourites-icon" x="88" y="82"><path fill="#525252" d="M6.4 14.5L16 3.1l-1.9-1.6-8 9.5-4.5-3.8L0 9.1z"/></svg><svg viewBox="0 0 84 24" width="84" height="24" id="bbc-logo" y="58"><g fill="#262626"><path d="M84 0v24H58.6V0H84zm-5 16l-.4.2c-2 1.2-4.1 1.9-6.1 1.9-4.2 0-6.9-2.5-6.9-6.1 0-3.5 2.9-6.1 6.8-6.1 2 0 3.8.5 6 1.7l.4.2V4.6l-.2-.1c-2.4-1-4.3-1.4-6.2-1.4-2.9 0-5.4 1-7.2 2.6-1.8 1.6-2.8 3.9-2.8 6.5 0 1.8.8 4 2.4 5.7 1.6 1.7 4.1 2.9 7.5 2.9 2.8 0 4.8-.6 6.5-1.5l.2-.1V16zM54.7 0v24H29.3V0h25.4zm-6 15.9c0-2.2-1.4-3.8-3.8-4.5.6-.3 1.1-.7 1.5-1.2.5-.6.7-1.4.7-2.3 0-1.1-.4-2.3-1.4-3.1-.9-.9-2.4-1.4-4.3-1.4H36v17.3h6.4c2.3 0 3.9-.6 4.9-1.5.9-1 1.4-2.2 1.4-3.3z"/><path d="M45.5 15.6c0 .6-.2 1.1-.7 1.6-.5.4-1.4.8-2.8.8h-3v-4.7h2.8c1.3 0 2.2.3 2.8.7.6.3.9.9.9 1.6zM43.1 9.9c.5-.4.8-1 .8-1.8 0-.6-.2-1.1-.6-1.4-.4-.4-1.1-.6-2.2-.6H39v4.5h1.4c1.3-.1 2.2-.3 2.7-.7z"/><g><path d="M25.4 0v24H0V0h25.4zm-6 15.9c0-2.2-1.4-3.8-3.8-4.5.6-.3 1.1-.7 1.5-1.2.5-.6.7-1.4.7-2.3 0-1.1-.4-2.3-1.4-3.1-.9-.9-2.4-1.4-4.3-1.4H6.7v17.3H13c2.3 0 3.9-.6 4.9-1.5 1-1 1.5-2.2 1.5-3.3z"/><path d="M13.8 9.9c.5-.4.8-1 .8-1.8 0-.6-.2-1.1-.6-1.4-.4-.4-1.1-.6-2.2-.6h-2v4.5h1.4c1.2-.1 2.1-.3 2.6-.7zM15.4 13.9c-.6-.4-1.5-.7-2.8-.7H9.8V18h2.9c1.5 0 2.3-.3 2.8-.8.5-.4.7-1 .7-1.6 0-.7-.2-1.3-.8-1.7z"/></g></g></svg><svg viewBox="0 0 16 16" width="16" height="16" id="check-box-selected" x="164" y="58"><path fill="#FFF" d="M0 0v16h16V0H0zm8.7 10.3L7.2 12l-1.7-1.4-2.3-2 1.4-1.7 2.4 2L11.1 4l1.7 1.4-4.1 4.9z"/></svg><svg viewBox="0 0 13 11" width="13" height="11" id="chevron-down" x="143" y="44"><path fill="#FFF" d="M3.5 0H0l6.5 11L13 0H9.5l-3 5z"/></svg><svg viewBox="0 0 13 11" width="13" height="11" id="chevron-up" x="130" y="44"><path fill="#FFF" d="M9.5 11H13L6.5 0 0 11h3.5l3-5z"/></svg><svg viewBox="0 0 16 16" width="16" height="16" id="follow-facebook-icon" x="162" y="24"><path fill="#FFF" d="M6.1 16V8.5h-2V5.8h2V3.5C6.1 1.7 7.3 0 10 0c1.1 0 1.9.1 1.9.1l-.1 2.5h-1.7c-1 .1-1.1.5-1.1 1.3v2h2.9l-.1 2.7H9V16H6.1z"/></svg><svg viewBox="0 0 16 16" width="16" height="16" id="follow-pinterest-icon" x="84" y="58"><path fill="#FFF" d="M8 0C3.6 0 0 3.6 0 8c0 3.3 2 6.1 4.8 7.3 0-.5 0-1.2.1-1.9s1-4.3 1-4.3-.3-.5-.3-1.2c0-1.2.7-2.1 1.5-2.1.7 0 1.1.5 1.1 1.2s-.5 1.8-.7 2.9c-.2.9.4 1.5 1.3 1.5 1.5 0 2.5-1.9 2.5-4.3C11.3 5.4 10.1 4 8 4c-2.4.1-4 1.9-4 3.9 0 .7.2 1.2.5 1.6.1.2.2.3.1.5-.1.1-.1.5-.1.7-.1.2-.2.3-.4.2-1.1-.5-1.7-1.7-1.7-3.1.1-2.3 2-5.1 5.8-5.1 3.1 0 5 2.2 5 4.6 0 3.1-1.7 5.5-4.3 5.5-.9 0-1.7-.5-1.9-1 0 0-.5 1.9-.5 2.2-.2.6-.5 1.3-.8 1.7.8.2 1.5.3 2.3.3 4.4 0 8-3.6 8-8s-3.7-8-8-8z"/></svg><svg viewBox="0 0 16 16" width="16" height="16" id="follow-twitter-icon" x="100" y="58"><path fill="#FFF" d="M16 3c-.6.3-1.3.5-1.9.5.7-.4 1.2-1 1.5-1.9-.7.4-1.4.7-2.1.8-.7-.5-1.5-.9-2.5-.9-1.8 0-3.2 1.5-3.2 3.3 0 .3.1.5.1.8-2.7-.2-5.2-1.5-6.8-3.4-.3.4-.4 1-.4 1.6-.1 1.1.5 2.2 1.4 2.7-.5 0-1-.1-1.5-.4v.1c0 1.6 1.1 2.9 2.7 3.2-.3 0-.5.1-.9.1-.2 0-.4 0-.6-.1.4 1.3 1.6 2.3 3.1 2.3-1.1.9-2.6 1.4-4.1 1.4-.3 0-.5 0-.8-.1 1.3 1 3.1 1.5 4.9 1.5 6.1 0 9.3-5 9.3-9.3v-.4C15 4.3 15.6 3.7 16 3z"/></svg><svg viewBox="0 0 130 34" width="130" height="34" id="food-logo" y="24"><g fill="#333"><path d="M0 .47h17.46v4.17H4.69v9.142H17.46v4.172H4.69v15.258H0V.47zM38.543 0c5.06 0 9.27 1.602 12.637 4.805 3.364 3.203 5.047 7.22 5.047 12.047s-1.698 8.824-5.094 11.988c-3.396 3.164-7.68 4.746-12.847 4.746-4.935 0-9.046-1.582-12.332-4.746-3.287-3.164-4.93-7.13-4.93-11.895 0-4.89 1.654-8.938 4.965-12.14C29.3 1.6 33.483 0 38.542 0zm.187 4.453c-3.746 0-6.825 1.172-9.237 3.516s-3.618 5.335-3.618 8.976c0 3.53 1.21 6.47 3.63 8.812 2.42 2.344 5.448 3.516 9.085 3.516 3.652 0 6.7-1.195 9.145-3.586 2.442-2.39 3.664-5.367 3.664-8.93 0-3.47-1.223-6.387-3.665-8.754-2.444-2.367-5.446-3.55-9.005-3.55zM78.06 0c5.058 0 9.27 1.602 12.636 4.805 3.364 3.203 5.047 7.22 5.047 12.047s-1.698 8.824-5.094 11.988c-3.397 3.164-7.68 4.746-12.848 4.746-4.935 0-9.046-1.582-12.332-4.746-3.287-3.164-4.93-7.13-4.93-11.895 0-4.89 1.654-8.938 4.965-12.14C68.815 1.6 73 0 78.06 0zm.186 4.453c-3.746 0-6.825 1.172-9.237 3.516s-3.62 5.335-3.62 8.976c0 3.53 1.21 6.47 3.63 8.812 2.42 2.344 5.45 3.516 9.086 3.516 3.652 0 6.7-1.195 9.145-3.586 2.443-2.39 3.665-5.367 3.665-8.93 0-3.47-1.222-6.387-3.664-8.754-2.443-2.367-5.445-3.55-9.004-3.55zM99.35 33.164V.47h11.04c4.452 0 7.976.667 10.57 2.003s4.655 3.3 6.187 5.895 2.297 5.422 2.297 8.484c0 2.188-.422 4.28-1.266 6.28s-2.047 3.76-3.61 5.274a15.85 15.85 0 0 1-5.554 3.54c-1.234.483-2.367.808-3.398.972s-3 .246-5.906.246H99.35zM109.897 4.64h-5.86v24.353h6c2.345 0 4.165-.16 5.462-.48s2.378-.727 3.245-1.22 1.66-1.097 2.38-1.815c2.31-2.344 3.468-5.305 3.468-8.883 0-3.516-1.188-6.383-3.562-8.602-.874-.828-1.878-1.508-3.01-2.04s-2.208-.882-3.224-1.054-2.65-.26-4.9-.26z"/></g></svg><svg viewBox="0 0 16 16" width="16" height="16" id="how-to-icon" x="132" y="58"><path d="M8.893 2.482l1.06-1.06 3.557 3.56.712-.712L10.665.712 9.952 0 9.24.712 8.182 1.77 6.404 3.55l-4.27 4.268-.356.356L0 9.952h3.557L9.605 16h1l5.404-5.403v-1L8.892 2.48zM2.49 9.005l5.692-5.81 5.69 5.81H2.49z" fill="#676767"/></svg><svg viewBox="0 0 16 16" width="16" height="16" id="how-to-icon-green" x="148" y="58"><path fill="#277500" d="M8.888 2.48l1.058-1.057 3.556 3.556.712-.712L10.66.712 9.945 0l-.71.712-1.06 1.057L6.4 3.546 2.133 7.814l-.356.355L0 9.945h3.555L9.6 15.99h1l5.4-5.4v-1L8.888 2.48zM2.488 9l5.69-5.808L13.865 9H2.49z"/></svg><svg viewBox="0 0 188 24" width="188" height="24" id="icon-bbc-food"><path d="M98.4 23.4h-3.2V.6h14.3v2.8H98.4v7.1h10.4v2.7H98.4v10.2zM136.2 12c0 1.8-.3 3.4-.9 4.9-.6 1.5-1.5 2.7-2.5 3.8-1.1 1.1-2.4 1.9-3.8 2.5-1.5.6-3.1.9-4.8.9s-3.3-.3-4.8-.9c-1.5-.6-2.7-1.4-3.8-2.5-1.1-1.1-1.9-2.3-2.5-3.8-.6-1.5-.9-3.1-.9-4.9 0-1.8.3-3.4.9-4.9.6-1.5 1.4-2.7 2.5-3.8 1.1-1 2.3-1.9 3.8-2.4 1.5-.6 3.1-.9 4.8-.9s3.4.3 4.8.9c1.5.6 2.8 1.4 3.8 2.4 1.1 1 1.9 2.3 2.5 3.8.6 1.5.9 3.1.9 4.9zm-3.4 0c0-1.2-.2-2.4-.6-3.5-.4-1.1-1-2.1-1.7-2.9-.8-.8-1.7-1.5-2.7-2-1.1-.5-2.3-.7-3.6-.7-1.3 0-2.5.2-3.6.7-1.1.5-2 1.1-2.7 2-.7.8-1.3 1.8-1.7 2.9-.4 1.1-.6 2.3-.6 3.5 0 1.3.2 2.5.6 3.6.4 1.1 1 2.1 1.7 2.9.8.8 1.7 1.5 2.7 2 1.1.5 2.2.7 3.5.7 1.3 0 2.5-.2 3.6-.7 1.1-.5 2-1.1 2.7-2 .8-.8 1.3-1.8 1.7-2.9.5-1.2.7-2.4.7-3.6zM163.3 12c0 1.8-.3 3.4-.9 4.9-.6 1.5-1.5 2.7-2.5 3.8-1.1 1.1-2.4 1.9-3.8 2.5-1.5.6-3.1.9-4.8.9s-3.3-.3-4.8-.9c-1.5-.6-2.7-1.4-3.8-2.5-1.1-1.1-1.9-2.3-2.5-3.8-.6-1.5-.9-3.1-.9-4.9 0-1.8.3-3.4.9-4.9.6-1.5 1.4-2.7 2.5-3.8 1.1-1 2.3-1.9 3.8-2.4 1.5-.6 3.1-.9 4.8-.9s3.4.3 4.8.9c1.5.6 2.8 1.4 3.8 2.4 1.1 1 1.9 2.3 2.5 3.8.6 1.5.9 3.1.9 4.9zm-3.5 0c0-1.2-.2-2.4-.6-3.5-.4-1.1-1-2.1-1.7-2.9-.8-.8-1.7-1.5-2.7-2-1.1-.5-2.3-.7-3.6-.7-1.3 0-2.5.2-3.6.7-1.1.5-2 1.1-2.7 2-.7.8-1.3 1.8-1.7 2.9-.4 1.1-.6 2.3-.6 3.5 0 1.3.2 2.5.6 3.6.4 1.1 1 2.1 1.7 2.9.8.8 1.7 1.5 2.7 2 1.1.5 2.2.7 3.5.7 1.3 0 2.5-.2 3.6-.7 1.1-.5 2-1.1 2.7-2 .8-.8 1.3-1.8 1.7-2.9.5-1.2.7-2.4.7-3.6zM167.3.6h7.8c1.5 0 2.9.2 4.4.6 1.5.4 2.8 1.1 4 2 1.2.9 2.1 2.1 2.9 3.5.7 1.4 1.1 3.2 1.1 5.2s-.4 3.7-1.1 5.1c-.7 1.4-1.7 2.6-2.9 3.5-1.2.9-2.5 1.6-4 2.1s-2.9.7-4.4.7h-7.8V.6zm3.2 20h4c1.4 0 2.7-.2 3.8-.6 1.2-.4 2.2-.9 3-1.7.8-.7 1.5-1.6 2-2.7s.7-2.3.7-3.6c0-1.4-.2-2.7-.7-3.7-.5-1.1-1.1-2-2-2.7-.8-.7-1.9-1.3-3-1.6-1.2-.4-2.4-.6-3.8-.6h-4v17.2z"/><g><path d="M79.7.6v22.8H55.6V.6h24.1zm-4.8 15.3l-.4.2c-1.9 1.1-3.9 1.8-5.7 1.8-3.9 0-6.6-2.4-6.6-5.8 0-3.3 2.7-5.8 6.5-5.8 1.9 0 3.6.5 5.7 1.6l.4.2V5h-.2c-2.3-.9-4.1-1.3-5.9-1.3-2.7 0-5.1.9-6.8 2.4-1.7 1.5-2.7 3.7-2.7 6.2 0 1.7.7 3.8 2.2 5.4 1.5 1.6 3.9 2.8 7.1 2.8 2.7 0 4.5-.6 6.2-1.4l.1-.1v-3.1zM51.9.6v22.8H27.8V.6h24.1zm-5.7 15.1c0-2.1-1.4-3.6-3.6-4.2.6-.3 1.1-.7 1.4-1.1.5-.6.7-1.4.7-2.2 0-1.1-.4-2.2-1.3-3-.9-.8-2.3-1.3-4.1-1.3h-5.1v16.4h6c2.2 0 3.7-.6 4.6-1.5 1-.9 1.4-2 1.4-3.1z"/><path d="M43.2 15.4c0 .5-.2 1.1-.7 1.5-.5.4-1.3.7-2.7.7H37v-4.5h2.7c1.2 0 2.1.3 2.7.6.5.5.8 1.1.8 1.7zM40.9 10.1c.5-.4.8-.9.8-1.7 0-.5-.2-1-.5-1.4-.4-.3-1.1-.6-2.1-.6h-2v4.2h1.4c1.1 0 1.9-.2 2.4-.5z"/><g><path d="M24.1.6v22.8H0V.6h24.1zm-5.7 15.1c0-2.1-1.4-3.6-3.6-4.2.6-.3 1.1-.7 1.4-1.1.5-.6.7-1.4.7-2.2 0-1.1-.4-2.2-1.3-3-.9-.8-2.3-1.3-4.1-1.3H6.3v16.4h6c2.2 0 3.7-.6 4.6-1.5 1.1-.9 1.5-2 1.5-3.1z"/><path d="M13.1 10.1c.5-.4.8-.9.8-1.7 0-.5-.2-1-.5-1.4-.4-.3-1.1-.6-2.1-.6h-2v4.2h1.3c1.2 0 2-.2 2.5-.5zM14.6 13.9c-.6-.4-1.4-.6-2.7-.6H9.3v4.5H12c1.4 0 2.2-.3 2.7-.7.5-.4.6-1 .7-1.5 0-.8-.3-1.4-.8-1.7z"/></g></g></svg><svg viewBox="0 0 16 16" width="16" height="16" id="icon-recipe-tips" x="40" y="82"><path d="M11.9 2.5C11.2 1 9.8 0 8 0S4.8 1 4.1 2.5C1.8 2.9 0 5 0 7.4c0 2.3 1.6 4.2 3.7 4.7V16h8.7v-3.9c2.1-.5 3.7-2.5 3.7-4.7-.1-2.4-1.9-4.5-4.2-4.9zm.2 8.7l-.7.2V13H4.7v-.7h.2c1.2 0 2.2-.5 3.1-1.3V9.6c-.7 1-1.8 1.7-3.1 1.7-.3 0-.6 0-.8-.1h-.2C2.2 10.7 1 9.2 1 7.4c0-1.9 1.4-3.5 3.2-3.9l.5-.1L5 3c.5-1.2 1.7-2 3-2s2.5.8 3 2l.2.5.5.1c1.9.3 3.3 1.9 3.3 3.8 0 1.8-1.2 3.3-2.9 3.8z"/></svg><svg viewBox="0 0 16 20" width="16" height="20" id="icon-recommended-wine" x="130" y="24"><path d="M16 4.6L8.4.2c-.4.3-.8.7-1.2 1l8.6 5c.1-.5.2-1.1.2-1.6zM7.27 18.408l-.75 1.3-2.598-1.5.75-1.3zM.8 14.7L0 16l2.6 1.5.8-1.3z"/><path d="M2.6 17.5l1.3.8.8-1.3-1.3-.8z"/><path d="M6.3 11.1l-3 5.1 1.4.8 3-5.1c2.4.9 5.5-.6 7.2-3.5.3-.5.5-1 .6-1.5H4.7c0 1.7.5 3.2 1.6 4.2z"/></svg><svg viewBox="0 0 16 16" width="16" height="16" id="icon-remove-favourite-default" x="72" y="82"><path fill="#FFF" d="M16 2.6L13.4 0 8 5.4 2.6 0 0 2.6 5.4 8 0 13.4 2.6 16 8 10.6l5.4 5.4 2.6-2.6L10.6 8z"/></svg><svg viewBox="0 0 13 13" width="13" height="13" id="icon-vegetarian" x="104" y="98"><circle cx="6.5" cy="6.5" r="6.5"/><path fill="#FFF" d="M7.3 10.5H5.6l-2.3-7h1.6l1.6 5.4 1.6-5.4h1.6l-2.4 7z"/></svg><svg viewBox="0 0 16 16" width="16" height="16" id="icon-warning" x="104" y="82"><path fill="#676767" d="M8 .7L0 14.3h16L8 .7zM9.2 13H6.8v-2.5h2.5V13zM6.8 9.3V4.4h2.5v4.9H6.8z"/></svg><svg viewBox="0 0 12 10" width="12" height="10" id="mobile-menu-closed" x="168" y="44"><path fill="#277500" d="M0 0h12v2.003H0zM0 4h12v2.003H0zM0 8h12v2.003H0z"/></svg><svg viewBox="0 0 12 10" width="12" height="10" id="mobile-menu-open" x="156" y="44"><path fill="#FFF" d="M0 0h12v2.003H0zM0 4h12v2.003H0zM0 8h12v2.003H0z"/></svg><svg viewBox="0 0 7 4" width="7" height="4" id="nav-down-arrow" x="178" y="28"><path fill="#CDE9BF" d="M0 0h7L3.5 4z"/></svg><svg viewBox="0 0 7 4" width="7" height="4" id="nav-down-arrow-active" x="178" y="24"><path d="M0 0h7L3.5 4z"/></svg><svg viewBox="0 0 16 16" width="16" height="16" id="print-icon" x="40" y="98"><path fill="#525252" d="M13 6V2.5L10.5 0H3v6H0v6l3 3v1h10v-1l3-3V6h-3zM4 6V1h6.1L12 2.9V9H4V6zm0 9v-2.5h8V15H4z"/></svg><svg viewBox="0 0 16 16" width="16" height="16" id="recipes-tips-icon" x="56" y="98"><path d="M11.924 2.547C11.25 1.047 9.75 0 8 0S4.75 1.048 4.076 2.547A4.915 4.915 0 0 0 0 7.385c0 2.29 1.572 4.2 3.692 4.75V16h8.615v-3.867C14.428 11.585 16 9.676 16 7.385a4.915 4.915 0 0 0-4.076-4.838zm.133 8.618l-.75.194V13H4.693v-.705c.076.004.15.013.23.013 1.17 0 2.195-.46 3.077-1.344V9.62c-.655 1.015-1.78 1.697-3.077 1.697-.283 0-.554-.046-.818-.11l-.162-.04A3.914 3.914 0 0 1 1 7.384a3.908 3.908 0 0 1 3.248-3.853l.522-.09.218-.485A3.314 3.314 0 0 1 8 1c1.295 0 2.477.768 3.012 1.957l.218.484.523.092A3.906 3.906 0 0 1 15 7.385a3.912 3.912 0 0 1-2.943 3.78z" fill="#676767"/></svg><svg viewBox="0 0 16 16" width="16" height="16" id="recipes-tips-icon-green" x="72" y="98"><path fill="#277500" d="M11.922 2.546A4.3 4.3 0 0 0 8 0C6.25 0 4.75 1.05 4.078 2.546 1.763 2.95 0 4.954 0 7.383c0 2.292 1.57 4.2 3.692 4.75V16h8.61v-3.865C14.43 11.585 16 9.678 16 7.385a4.918 4.918 0 0 0-4.078-4.84zm.135 8.62l-.75.193v1.639H4.69v-.707c.078.003.15.014.232.014 1.17 0 2.194-.46 3.078-1.343V9.62c-.654 1.015-1.78 1.698-3.078 1.698-.283 0-.554-.046-.817-.108l-.163-.043A3.907 3.907 0 0 1 1 7.39a3.908 3.908 0 0 1 3.25-3.855l.52-.092.22-.483C5.52 1.768 6.705 1 8 1s2.478.768 3.01 1.957l.218.483.522.092A3.906 3.906 0 0 1 15 7.386a3.91 3.91 0 0 1-2.943 3.78z"/></svg><svg viewBox="0 0 16 16" width="16" height="16" id="recommended-wine-icon" x="88" y="98"><path d="M13 3.586L6.844 0a6.15 6.15 0 0 0-1.017.83l6.968 4.06c.113-.438.188-.878.205-1.304z" fill="#676767"/><g fill="#676767"><path d="M5.293 16l.61-1.067-2.097-1.22-.613 1.065zM.61 11.85L0 12.92l2.117 1.232.018.013.61-1.07z"/><path d="M2.135 14.163l1.04.606.018.008.613-1.066-1.06-.618z"/></g><path d="M5.156 8.888l-2.41 4.206 1.06.618 2.408-4.207c1.984.71 4.502-.47 5.885-2.887.224-.392.386-.794.525-1.2H3.83c-.036 1.396.4 2.673 1.326 3.47z" fill="#676767"/></svg><svg viewBox="0 0 16 16" width="16" height="16" id="recommended-wine-icon-green" x="168" y="82"><path fill="#277500" d="M13 3.586L6.844 0c-.358.23-.696.513-1.017.832l6.968 4.06c.113-.44.188-.88.205-1.306z"/><g fill="#277500"><path d="M5.294 16l.61-1.067-2.098-1.22-.612 1.065zM.61 11.85L0 12.918l2.117 1.232.018.013.61-1.07z"/><path d="M2.135 14.163l1.04.605.02.01.61-1.065-1.06-.62z"/></g><path fill="#277500" d="M5.156 8.887l-2.41 4.206 1.06.617 2.407-4.206c1.984.71 4.502-.468 5.886-2.887.224-.392.386-.794.524-1.2H3.83c-.036 1.397.4 2.673 1.326 3.47z"/></svg><svg viewBox="0 0 16 16" width="16" height="16" id="remove-icon" x="152" y="82"><g fill="#277500"><path d="M14.293.01l1.768 1.767L1.85 15.992.08 14.224z"/><path d="M.01 1.706L1.777-.062 15.99 14.15l-1.768 1.77z"/></g></svg><svg viewBox="0 0 40 40" width="40" height="40" id="search-icon-blue" y="82"><path fill="#FFF" d="M0 0h40v40H0z"/><path fill="none" d="M21.7 15.3c-.9-.8-2-1.3-3.2-1.3-1.2 0-2.3.5-3.2 1.3-.8.9-1.3 2-1.3 3.2 0 1.2.5 2.3 1.3 3.2.9.8 2 1.3 3.2 1.3 1.2 0 2.3-.5 3.2-1.3 1.7-1.8 1.7-4.6 0-6.4z"/><path fill="#235272" d="M28 26.2l-4.1-4.1c1.7-2.5 1.4-6-.8-8.2-1.3-1.3-2.9-1.9-4.6-1.9-1.7 0-3.3.6-4.6 1.9-2.5 2.5-2.5 6.7 0 9.2 1.3 1.3 2.9 1.9 4.6 1.9 1.3 0 2.5-.4 3.6-1.1l4.1 4.1 1.8-1.8zm-12.7-4.5c-.8-.9-1.3-2-1.3-3.2 0-1.2.5-2.3 1.3-3.2.9-.8 2-1.3 3.2-1.3 1.2 0 2.3.5 3.2 1.3 1.8 1.8 1.8 4.6 0 6.4-.8.8-2 1.3-3.2 1.3-1.2 0-2.3-.5-3.2-1.3z"/></svg><svg viewBox="0 0 16 16" width="16" height="16" id="send-mobile-icon" x="120" y="82"><path fill="#525252" d="M11 0v1H3v15h10V0h-2zM6.5 14H5v-1h1.5v1zm0-2H5v-1h1.5v1zm0-2H5V9h1.5v1zM9 14H7v-1h2v1zm0-2H7v-1h2v1zm0-2H7V9h2v1zm2 4H9.5v-1H11v1zm0-2H9.5v-1H11v1zm0-2H9.5V9H11v1zm0-2.5H5V3h6v4.5z"/></svg><svg viewBox="0 0 16 16" width="16" height="16" id="shopping-list-icon" x="136" y="82"><g fill="#525252"><path d="M0 0h4v4H0zM0 6h4v4H0zM0 12h4v4H0zM5.5 0v4H16V0zM5.5 8.5V10H16V6H5.5zM5.5 14.5V16H16v-4H5.5z"/></g></svg><svg viewBox="0 0 16 16" width="16" height="16" id="vegetarian-icon" x="56" y="82"><path d="M8 0a8 8 0 1 0 0 16A8 8 0 0 0 8 0zm1.038 12.892H6.903l-2.8-8.613h1.954l1.918 6.61H8l1.942-6.61h1.954L9.038 12.89z" fill="#3a3a3a"/></svg><svg viewBox="0 0 16 16" width="16" height="16" id="white-search-icon" x="116" y="58"><path fill="none" d="M9.7 3.3C8.8 2.5 7.7 2 6.5 2s-2.3.5-3.2 1.3c-.8.9-1.3 2-1.3 3.2s.5 2.3 1.3 3.2c.9.8 2 1.3 3.2 1.3s2.3-.5 3.2-1.3c1.7-1.8 1.7-4.6 0-6.4z"/><path fill="#FFF" d="M16 14.2l-4.1-4.1c1.7-2.5 1.4-6-.8-8.2C9.8.6 8.2 0 6.5 0S3.2.6 1.9 1.9c-2.5 2.5-2.5 6.7 0 9.2C3.2 12.4 4.8 13 6.5 13c1.3 0 2.5-.4 3.6-1.1l4.1 4.1 1.8-1.8zM3.3 9.7C2.5 8.8 2 7.7 2 6.5s.5-2.3 1.3-3.2c.9-.8 2-1.3 3.2-1.3s2.3.5 3.2 1.3c1.8 1.8 1.8 4.6 0 6.4-.8.8-2 1.3-3.2 1.3s-2.3-.5-3.2-1.3z"/></svg></svg>